<svg width="48" height="48" viewBox="0 0 48 48" fill="none" xmlns="http://www.w3.org/2000/svg">
<circle cx="24" cy="24" r="24" fill="#EBF5FF"/>
<g clip-path="url(#clip0_68_1022)">
<path d="M35.9937 22.3822C35.9505 21.8203 35.6911 21.309 35.2633 20.9424L33.1874 19.163V14.1068C33.1874 13.7184 32.8726 13.4037 32.4843 13.4037H29.6719C29.2836 13.4037 28.9782 13.7185 28.9782 14.1068V15.5471L25.4199 12.5146C24.6244 11.833 23.4697 11.8331 22.6768 12.5125L12.7373 20.9423C11.8582 21.6955 11.7442 23.0247 12.5092 23.9176C13.0922 24.5957 14.0262 24.8119 14.8224 24.532V35.2938C14.8224 35.6821 15.1279 35.9969 15.5162 35.9969H32.4843C32.8726 35.9969 33.1874 35.6821 33.1874 35.2938V24.5322C34.0093 24.8228 34.9236 24.5792 35.4921 23.9167C35.8586 23.4888 36.0368 22.9438 35.9937 22.3822ZM30.375 14.8098H31.7906V17.9577L30.375 16.7524V14.8098ZM26.8689 34.5907H21.141V28.9565H26.8689V34.5907ZM31.7906 34.5907H28.2657V28.2628C28.2657 27.8745 27.9509 27.5597 27.5626 27.5597H20.4379C20.0495 27.5597 19.7441 27.8745 19.7441 28.2628V34.5907H16.2193V23.5207L24.0448 16.8826L31.7906 23.5142V34.5907H31.7906ZM34.4245 23.0013C34.1753 23.2918 33.7321 23.3344 33.4328 23.0778L24.5046 15.4247C24.2424 15.1999 23.8557 15.1989 23.5923 15.4224C23.402 15.5837 14.6053 23.0458 14.5681 23.0774C14.2736 23.3293 13.8283 23.295 13.5762 23.0017C13.3238 22.7071 13.3579 22.2623 13.6497 22.0121L23.5893 13.5823C23.8546 13.3551 24.2397 13.355 24.5048 13.5822L34.3483 22.0101C34.6426 22.2623 34.6766 22.7072 34.4245 23.0013Z" fill="#1E609D"/>
<path d="M26.1564 20.4346H21.844C21.4557 20.4346 21.1503 20.7494 21.1503 21.1377V25.3563C21.1503 25.7446 21.4558 26.0593 21.844 26.0593H26.1564C26.5447 26.0593 26.8595 25.7445 26.8595 25.3563V21.1377C26.8595 20.7494 26.5447 20.4346 26.1564 20.4346ZM25.4627 24.6532H22.5471V21.8408H25.4627V24.6532Z" fill="#1E609D"/>
<path d="M24.75 31.7781C25.1383 31.7781 25.4531 31.4634 25.4531 31.0751C25.4531 30.6868 25.1383 30.372 24.75 30.372C24.3617 30.372 24.0469 30.6868 24.0469 31.0751C24.0469 31.4634 24.3617 31.7781 24.75 31.7781Z" fill="#1E609D"/>
</g>
<defs>
<clipPath id="clip0_68_1022">
<rect width="24" height="24" fill="white" transform="translate(12 12)"/>
</clipPath>
</defs>
</svg>
