<svg width="48" height="48" viewBox="0 0 48 48" fill="none" xmlns="http://www.w3.org/2000/svg">
<circle cx="24" cy="24" r="24" fill="#FFF4D9"/>
<path d="M35.2969 23.25H34.5469V18.184C34.5469 17.2968 34.0995 16.4944 33.375 16.028V12.7031C33.375 12.3148 33.0602 12 32.6719 12H29.8594C29.4711 12 29.1562 12.3148 29.1562 12.7031V16.028C28.4317 16.4944 27.9844 17.2967 27.9844 18.184V19.5H26.5781V19.2656C26.5781 19.1229 26.5353 18.9903 26.4622 18.8794C26.4614 18.8782 26.4608 18.8768 26.46 18.8756L26.4587 18.8737C26.4583 18.873 26.4578 18.8723 26.4574 18.8716L24.7031 16.2402V13.6406C24.7031 13.2523 24.3883 12.9375 24 12.9375H19.3556C18.7282 12.3562 17.8895 12 16.9688 12C15.0302 12 13.4531 13.5771 13.4531 15.5156V23.25H12.7031C12.3148 23.25 12 23.5648 12 23.9531V26.7656C12 27.1539 12.3148 27.4688 12.7031 27.4688H13.0574L13.7425 33.7035C13.8864 35.0127 14.9881 36 16.3052 36H31.6948C33.0119 36 34.1136 35.0127 34.2575 33.7035L34.9426 27.4688H35.2969C35.6852 27.4688 36 27.1539 36 26.7656V23.9531C36 23.5648 35.6852 23.25 35.2969 23.25ZM30.5625 13.4062H31.9688V14.3438H30.5625V13.4062ZM29.3906 18.184C29.3906 17.7065 29.6771 17.2833 30.1205 17.106C30.3875 16.9992 30.5625 16.7407 30.5625 16.4531V15.75H31.9688V16.4531C31.9688 16.7407 32.1438 16.9992 32.4107 17.106C32.8541 17.2833 33.1406 17.7065 33.1406 18.184V23.25H29.3906V18.184ZM27.9844 20.9062V23.25H26.5781V20.9062H27.9844ZM25.1719 19.9688V23.25H20.4844V19.9688H25.1719ZM24.5612 18.5625H20.4844V17.1562H23.6237L24.5612 18.5625ZM23.2969 14.3438V15.75H20.4844V15.5156C20.4844 15.1048 20.4129 14.7105 20.2828 14.3438H23.2969ZM14.8594 21.8438H16.5C16.8883 21.8438 17.2031 21.5289 17.2031 21.1406C17.2031 20.7523 16.8883 20.4375 16.5 20.4375H14.8594V19.0312H16.5C16.8883 19.0312 17.2031 18.7164 17.2031 18.3281C17.2031 17.9398 16.8883 17.625 16.5 17.625H14.8594V16.2188H16.5C16.8883 16.2188 17.2031 15.9039 17.2031 15.5156C17.2031 15.1273 16.8883 14.8125 16.5 14.8125H14.9803C15.2706 13.9941 16.0521 13.4062 16.9688 13.4062C18.1319 13.4062 19.0781 14.3525 19.0781 15.5156V23.25H14.8594V21.8438ZM13.4062 24.6562H34.5938V26.0625H13.4062V24.6562ZM32.8596 33.5498C32.7942 34.145 32.2935 34.5938 31.6948 34.5938H16.3052C15.7065 34.5938 15.2058 34.145 15.1403 33.5498L14.4721 27.4688H33.5279L32.8596 33.5498Z" fill="#D97A23"/>
<path d="M23.5028 33.6378C23.6401 33.7751 23.8201 33.8438 24 33.8438C24.18 33.8438 24.3599 33.7751 24.4972 33.6378L26.5706 31.5644C27.3347 30.8002 27.3347 29.5569 26.5706 28.7928C26.2005 28.4226 25.7083 28.2188 25.1848 28.2188C24.7512 28.2188 24.3391 28.3586 24 28.617C23.6609 28.3586 23.2488 28.2188 22.8152 28.2188C22.2917 28.2188 21.7996 28.4226 21.4294 28.7928C20.6652 29.5569 20.6652 30.8002 21.4294 31.5644L23.5028 33.6378ZM22.4238 29.7871C22.5283 29.6826 22.6673 29.625 22.8152 29.625C22.9631 29.625 23.1021 29.6826 23.2067 29.7871L23.5029 30.0833C23.7774 30.3579 24.2227 30.3579 24.4973 30.0833L24.7935 29.7871C24.898 29.6826 25.037 29.625 25.1849 29.625C25.3328 29.625 25.4717 29.6826 25.5763 29.7871C25.6808 29.8917 25.7385 30.0307 25.7385 30.1786C25.7385 30.3265 25.6808 30.4655 25.5763 30.57L24 32.1463L22.4237 30.57C22.3192 30.4655 22.2616 30.3265 22.2616 30.1786C22.2616 30.0307 22.3192 29.8917 22.4238 29.7871Z" fill="#D97A23"/>
</svg>
