<svg width="48" height="48" viewBox="0 0 48 48" fill="none" xmlns="http://www.w3.org/2000/svg">
<circle cx="24" cy="24" r="24" fill="#FEF5FF"/>
<path d="M33 13.5H28.8464C28.3268 12.6042 27.3579 12 26.25 12C24.936 12 23.8175 12.8495 23.4126 14.0278L21.4546 15.2025C20.9699 14.1962 19.9397 13.5 18.75 13.5C17.0958 13.5 15.75 14.8458 15.75 16.5C15.75 17.1286 15.9447 17.7123 16.2764 18.195L13.752 19.8779C13.1245 20.2962 12.75 20.9961 12.75 21.75V24.75C12.75 25.9906 13.7594 27 15 27C16.2406 27 17.25 25.9906 17.25 24.75V22.9857L17.9907 25.2078L16.1279 28.002C15.8807 28.3728 15.75 28.8044 15.75 29.2501V33.75C15.75 34.9906 16.7594 36 18 36C19.2406 36 20.25 34.9906 20.25 33.75V29.9312L21 28.8062L22.3034 30.7612L21.7939 33.3083C21.676 33.8976 21.7945 34.4976 22.1278 34.9976C22.461 35.4977 22.9691 35.8381 23.5596 35.9563C23.7072 35.9856 23.8542 35.9997 23.9993 35.9997C25.0507 35.9997 25.9934 35.2588 26.2061 34.1915L27 30.2222L27.7937 34.191C28.0066 35.2587 28.949 35.9996 30.0011 35.9995C30.1463 35.9995 30.2938 35.9854 30.4416 35.9561C31.0309 35.8381 31.5389 35.4977 31.8721 34.9976C32.2054 34.4975 32.3239 33.8976 32.206 33.3085L30.75 26.0278V21H33C34.2406 21 35.25 19.9906 35.25 18.75V15.75C35.25 14.5094 34.2406 13.5 33 13.5ZM29.25 15H30.879C30.7958 15.2348 30.75 15.4871 30.75 15.75V16.5H28.8464C29.1025 16.0583 29.25 15.5462 29.25 15ZM26.25 13.5C27.0771 13.5 27.75 14.1729 27.75 15C27.75 15.8271 27.0771 16.5 26.25 16.5C25.4229 16.5 24.75 15.8271 24.75 15C24.75 14.1729 25.4229 13.5 26.25 13.5ZM18.75 15C19.5771 15 20.25 15.6729 20.25 16.5C20.25 17.3271 19.5771 18 18.75 18C17.9229 18 17.25 17.3271 17.25 16.5C17.25 15.6729 17.9229 15 18.75 15ZM22.7193 28.6811L21.624 27.0381C21.485 26.8294 21.2507 26.7041 21 26.7041C20.7493 26.7041 20.515 26.8295 20.376 27.0381L18.876 29.2881C18.7938 29.4113 18.75 29.556 18.75 29.7041V33.75C18.75 34.1635 18.4135 34.5 18 34.5C17.5865 34.5 17.25 34.1635 17.25 33.75V29.2501C17.25 29.1015 17.2936 28.9576 17.376 28.834L19.4423 25.7347C19.5706 25.542 19.6029 25.301 19.5298 25.0815L18.354 21.554C18.28 21.3322 18.107 21.1576 17.8859 21.0817C17.6647 21.0059 17.421 21.0375 17.2265 21.1671L16.084 21.9287C15.8753 22.0678 15.75 22.302 15.75 22.5527V24.75C15.75 25.1635 15.4135 25.5 15 25.5C14.5865 25.5 14.25 25.1635 14.25 24.75V21.75C14.25 21.4987 14.3748 21.2654 14.584 21.126L17.4606 19.2083C17.8515 19.3951 18.2887 19.5 18.75 19.5C20.3087 19.5 21.5932 18.3048 21.7363 16.7828L23.3614 15.8078C23.5335 16.4224 23.8967 16.9577 24.3829 17.3456L22.5434 18.4492C21.6397 18.9915 21.2347 20.0675 21.5588 21.0658C21.9349 22.2251 22.4671 23.9847 22.9818 25.6864L23.1843 26.3557L22.7193 28.6811ZM33.75 18.75C33.75 19.1635 33.4135 19.5 33 19.5H30C29.5858 19.5 29.25 19.8358 29.25 20.25V26.1021C29.25 26.1515 29.2549 26.2007 29.2646 26.2492L30.7353 33.6028C30.7746 33.7992 30.7351 33.9992 30.624 34.1659C30.513 34.3325 30.3436 34.446 30.1484 34.4851C29.7419 34.5658 29.3454 34.3023 29.2648 33.8974L27.7355 26.2508C27.6654 25.9003 27.3576 25.6479 27 25.6479C26.6425 25.6479 26.3347 25.9003 26.2646 26.2508L24.7352 33.8978C24.6546 34.3023 24.2584 34.5658 23.8528 34.4852C23.6564 34.446 23.4871 34.3325 23.376 34.1658C23.2649 33.9991 23.2254 33.7991 23.2648 33.6026L23.8351 30.7509C23.8351 30.7508 23.8351 30.7506 23.8352 30.7504L24.6909 26.472C24.6914 26.4699 24.6917 26.4678 24.6922 26.4658L24.7355 26.2491C24.7452 26.2006 24.7501 26.1514 24.7501 26.102V22.371C24.7501 21.9568 24.4143 21.621 24.0001 21.621C23.7555 21.621 23.5388 21.7387 23.402 21.9199C23.2508 21.4328 23.11 20.9861 22.9857 20.6028C22.8786 20.2728 23.0141 19.9161 23.3153 19.7355L26.2078 18H31.5C31.9142 18 32.25 17.6642 32.25 17.25V15.75C32.25 15.3365 32.5865 15 33 15C33.4135 15 33.75 15.3365 33.75 15.75V18.75Z" fill="#8F5998"/>
</svg>
