<svg width="48" height="48" viewBox="0 0 48 48" fill="none" xmlns="http://www.w3.org/2000/svg">
<circle cx="24" cy="24" r="24" fill="#EDFBEA"/>
<path d="M35.0245 22.4428C35.0221 22.4307 35.0207 22.4186 35.018 22.4066C34.25 17.5288 30.0185 13.7857 24.9286 13.7857H23.0714C17.4392 13.7857 12.8571 18.3677 12.8571 24V29.5714C12.8571 30.5956 13.6901 31.4286 14.7143 31.4286H21.9506C22.3225 31.4286 22.6726 31.2837 22.9354 31.0205L23.1165 30.8394L25.9463 32.8948C26.1784 33.6557 26.8786 34.2143 27.7143 34.2143H29.1071C30.1313 34.2143 30.9643 33.3813 30.9643 32.3571V26.7857H33.75C34.5179 26.7857 35.1428 26.1608 35.1428 25.3928V24C35.1428 23.4707 35.1025 22.9507 35.0245 22.4428ZM23.0714 15.6428H24.9286C28.7306 15.6428 31.9416 18.1973 32.951 21.6786H25.3928C25.1468 21.6786 24.9105 21.7765 24.7363 21.9506L20.3651 26.3214H14.7143V24C14.7143 19.392 18.4634 15.6428 23.0714 15.6428ZM25.8571 30.5348L24.4457 29.5097L25.8571 28.0982V30.5348ZM29.1071 32.3571H27.7143V26.7857H29.1071V32.3571ZM33.2857 24.9286H26.7857C26.5396 24.9286 26.3033 25.0265 26.1292 25.2006L21.758 29.5714H14.7143V28.1786H20.75C20.9961 28.1786 21.2324 28.0806 21.4065 27.9065L25.7773 23.5357H33.262C33.2708 23.6903 33.2857 23.8431 33.2857 24V24.9286Z" fill="#368952"/>
</svg>
